<svg xmlns="http://www.w3.org/2000/svg" version="1.1" xmlns:xlink="http://www.w3.org/1999/xlink" xmlns:svgjs="http://svgjs.dev/svgjs" width="1000" height="625" viewBox="0 0 1000 625"><g transform="matrix(1,0,0,1,0,0)"><svg viewBox="0 0 512 320" data-background-color="#ffffff" preserveAspectRatio="xMidYMid meet" height="625" width="1000" xmlns="http://www.w3.org/2000/svg" xmlns:xlink="http://www.w3.org/1999/xlink"><g id="tight-bounds" transform="matrix(1,0,0,1,0,0)"><svg viewBox="0 0 512 320" height="320" width="512"><g><svg></svg></g><g><svg viewBox="0 0 512 320" height="320" width="512"><g><path xmlns="http://www.w3.org/2000/svg" d="M96 160c0-88.366 71.634-160 160-160 88.366 0 160 71.634 160 160 0 88.366-71.634 160-160 160-88.366 0-160-71.634-160-160z" fill="#00ebff" fill-rule="nonzero" stroke="none" stroke-width="1" stroke-linecap="butt" stroke-linejoin="miter" stroke-miterlimit="10" stroke-dasharray="" stroke-dashoffset="0" font-family="none" font-weight="none" font-size="none" text-anchor="none" style="mix-blend-mode: normal" data-fill-palette-color="tertiary"></path></g><g transform="matrix(1,0,0,1,153.6,137.57898029402565)"><svg viewBox="0 0 204.8 44.8420394119487" height="44.8420394119487" width="204.8"><g><svg viewBox="0 0 204.8 44.8420394119487" height="44.8420394119487" width="204.8"><g><svg viewBox="0 0 204.8 44.8420394119487" height="44.8420394119487" width="204.8"><g id="textblocktransform"><svg viewBox="0 0 204.8 44.8420394119487" height="44.8420394119487" width="204.8" id="textblock"><g><svg viewBox="0 0 204.8 44.8420394119487" height="44.8420394119487" width="204.8"><g transform="matrix(1,0,0,1,0,0)"><svg width="204.8" viewBox="1.149999976158142 -34.400001525878906 159.8400115966797 35" height="44.8420394119487" data-palette-color="#ffffff"><path d="M29.65-11.95Q29.65-5.5 25.98-2.45 22.3 0.6 15.4 0.6L15.4 0.6Q8.5 0.6 4.83-2.45 1.15-5.5 1.15-11.95L1.15-11.95 1.15-12.4 11.5-12.4 11.5-12Q11.5-9.65 12.38-8.65 13.25-7.65 15.05-7.65L15.05-7.65Q16.85-7.65 17.73-8.65 18.6-9.65 18.6-12L18.6-12 18.6-34.4 29.65-34.4 29.65-11.95ZM70.5 0L58.8 0 57.35-4.85 45.3-4.85 43.85 0 32.55 0 45.1-34.4 57.95-34.4 70.5 0ZM51.25-24.8L47.6-12.55 55.05-12.55 51.45-24.8 51.25-24.8ZM102.25-25.6L91-25.6 91 0 79.95 0 79.95-25.6 68.65-25.6 68.65-34.4 102.25-34.4 102.25-25.6ZM118.84 0L107.79 0 107.79-34.4 118.84-34.4 118.84 0ZM160.99 0L151.34 0 136.89-16.7 136.89 0 126.74 0 126.74-34.4 136.39-34.4 150.84-17.45 150.84-34.4 160.99-34.4 160.99 0Z" opacity="1" transform="matrix(1,0,0,1,0,0)" fill="#ffffff" class="undefined-text-0" data-fill-palette-color="quaternary" id="text-0"></path></svg></g></svg></g></svg></g></svg></g><g></g></svg></g></svg></g></svg></g><defs></defs></svg><rect width="512" height="320" fill="none" stroke="none" visibility="hidden"></rect></g></svg></g></svg>